<?xml version="1.0" encoding="UTF-8" standalone="no"?>
<svg
   xmlns:dc="http://purl.org/dc/elements/1.1/"
   xmlns:cc="http://creativecommons.org/ns#"
   xmlns:rdf="http://www.w3.org/1999/02/22-rdf-syntax-ns#"
   xmlns:svg="http://www.w3.org/2000/svg"
   xmlns="http://www.w3.org/2000/svg"
   xmlns:xlink="http://www.w3.org/1999/xlink"
   xmlns:sodipodi="http://sodipodi.sourceforge.net/DTD/sodipodi-0.dtd"
   xmlns:inkscape="http://www.inkscape.org/namespaces/inkscape"
   sodipodi:docname="logo.svg"
   inkscape:version="1.0 (4035a4fb49, 2020-05-01)"
   id="svg8"
   version="1.1"
   viewBox="0 0 43.986462 43.986485"
   height="43.986485mm"
   width="43.986462mm">
  <defs
     id="defs2">
    <linearGradient
       inkscape:collect="always"
       id="linearGradient918">
      <stop
         style="stop-color:#bb13ae;stop-opacity:1"
         offset="0"
         id="stop914" />
      <stop
         style="stop-color:#f12562;stop-opacity:1"
         offset="1"
         id="stop916" />
    </linearGradient>
    <linearGradient
       gradientTransform="matrix(0.26458332,0,0,0.26458333,4.625892e-6,-8.5134489e-7)"
       gradientUnits="userSpaceOnUse"
       y2="138.59369"
       x2="581.52545"
       y1="258.06027"
       x1="472.14758"
       id="linearGradient907"
       xlink:href="#linearGradient918"
       inkscape:collect="always" />
  </defs>
  <sodipodi:namedview
     inkscape:window-maximized="1"
     inkscape:window-y="0"
     inkscape:window-x="2753"
     inkscape:window-height="1558"
     inkscape:window-width="1081"
     fit-margin-bottom="0"
     fit-margin-right="0"
     fit-margin-left="0"
     fit-margin-top="0"
     showguides="false"
     showgrid="false"
     inkscape:document-rotation="0"
     inkscape:current-layer="layer2"
     inkscape:document-units="mm"
     inkscape:cy="-70.805707"
     inkscape:cx="76.922692"
     inkscape:zoom="1"
     inkscape:pageshadow="2"
     inkscape:pageopacity="0.0"
     borderopacity="1.0"
     bordercolor="#666666"
     pagecolor="#ffffff"
     id="base" />
  <metadata
     id="metadata5">
    <rdf:RDF>
      <cc:Work
         rdf:about="">
        <dc:format>image/svg+xml</dc:format>
        <dc:type
           rdf:resource="http://purl.org/dc/dcmitype/StillImage" />
        <dc:title></dc:title>
      </cc:Work>
    </rdf:RDF>
  </metadata>
  <g
     transform="translate(-115.86218,-33.026386)"
     style="display:inline"
     id="layer1"
     inkscape:groupmode="layer"
     inkscape:label="Layer 1">
    <circle
       r="20.098242"
       cy="55.53178"
       cx="138.03418"
       id="path938"
       style="fill:#462198;fill-opacity:1;stroke-width:0.396999;stroke-linecap:square;stroke-miterlimit:4;stroke-dasharray:none;paint-order:markers fill stroke" />
  </g>
  <g
     transform="translate(-115.86218,-33.026386)"
     style="display:inline"
     inkscape:label="circle"
     id="layer2"
     inkscape:groupmode="layer">
    <path
       sodipodi:nodetypes="ccccccczczcczcccc"
       d="m 137.79262,33.026408 c -12.12193,0.03453 -21.93042,9.870995 -21.93044,21.992973 -2.2e-4,12.146555 9.84641,21.993418 21.99297,21.993489 12.14676,2.17e-4 21.9937,-9.84673 21.99349,-21.993489 -7e-5,-12.146557 -9.84694,-21.99319 -21.99349,-21.992973 -0.0208,-2.9e-5 -0.0417,-2.9e-5 -0.0625,0 z m 12.67942,12.978262 c 0.10325,2.783263 -3.82819,6.460904 -10.53732,6.95189 4.63236,0.715684 10.84285,4.451908 10.6568,8.41636 -0.18605,3.964452 -10.00957,7.522861 -14.09695,7.341748 1.17063,-6.319706 2.015,-19.143237 -0.50865,-29.380657 8.2498,-1.209058 14.38287,3.887396 14.48612,6.670659 z m -18.16886,-5.537882 c -2.70257,6.507113 -1.41241,23.433992 -0.26938,27.350261 -6.78682,-2.353746 -10.19002,-6.429984 -10.19025,-13.613371 -9e-5,-7.538051 3.41997,-10.869712 10.45963,-13.73689 z"
       style="fill:url(#linearGradient907);fill-opacity:1;stroke-width:0.396999;stroke-linecap:square;stroke-miterlimit:4;stroke-dasharray:none;paint-order:markers fill stroke"
       id="path20" />
  </g>
</svg>
